<svg width="4" height="20" viewBox="0 0 4 20" fill="none" xmlns="http://www.w3.org/2000/svg">
<path d="M2 0.5C0.8954 0.5 0 1.39543 0 2.5C0 3.60457 0.8954 4.5 2 4.5C3.1046 4.5 4 3.60457 4 2.5C4 1.39543 3.1046 0.5 2 0.5Z" fill="black"/>
<path d="M0 10C0 8.8954 0.8954 8 2 8C3.1046 8 4 8.8954 4 10C4 11.1046 3.1046 12 2 12C0.8954 12 0 11.1046 0 10Z" fill="black"/>
<path d="M0 17.5C0 16.3954 0.8954 15.5 2 15.5C3.1046 15.5 4 16.3954 4 17.5C4 18.6046 3.1046 19.5 2 19.5C0.8954 19.5 0 18.6046 0 17.5Z" fill="black"/>
</svg>
