<svg width="21" height="18" viewBox="0 0 21 18" fill="none" xmlns="http://www.w3.org/2000/svg">
<path d="M9.9549 15.1872L5.0177 10.25H19.7499C20.4403 10.25 20.9999 9.6904 20.9999 9C20.9999 8.3097 20.4403 7.75 19.7499 7.75H5.01771L9.9549 2.81284C10.443 2.32469 10.443 1.53323 9.9549 1.04507C9.8939 0.98405 9.8281 0.930659 9.7588 0.884899C9.2736 0.564539 8.61426 0.61794 8.18712 1.04507L1.11606 8.1161C0.627901 8.6043 0.627901 9.3958 1.11606 9.8839L8.18712 16.955C8.67528 17.4431 9.4667 17.4431 9.9549 16.955C10.443 16.4668 10.443 15.6754 9.9549 15.1872Z" fill="black"/>
</svg>
