<svg width="20" height="19" viewBox="0 0 20 19" fill="none" xmlns="http://www.w3.org/2000/svg">
<path fill-rule="evenodd" clip-rule="evenodd" d="M10 15C12.4853 15 14.5 12.9853 14.5 10.5C14.5 8.0147 12.4853 6 10 6C7.51472 6 5.5 8.0147 5.5 10.5C5.5 12.9853 7.51472 15 10 15ZM10 12.5C11.1046 12.5 12 11.6046 12 10.5C12 9.3954 11.1046 8.5 10 8.5C8.8954 8.5 8 9.3954 8 10.5C8 11.6046 8.8954 12.5 10 12.5Z" fill="white"/>
<path fill-rule="evenodd" clip-rule="evenodd" d="M0 5C0 3.89543 0.89543 3 2 3H5L5.86599 1.50002C6.22325 0.88121 6.88351 0.5 7.59805 0.5H12.402C13.1165 0.5 13.7768 0.88121 14.134 1.50002L15 3H18C19.1046 3 20 3.89543 20 5V17C20 18.1046 19.1046 19 18 19H2C0.89543 19 0 18.1046 0 17V5ZM5 5.5C5.89318 5.5 6.7185 5.02349 7.16508 4.24997L7.88673 3H12.1133L12.8349 4.24998C13.2815 5.02349 14.1068 5.5 15 5.5H17.5V16.5H2.5V5.5H5Z" fill="white"/>
</svg>
