<svg width="20" height="14" viewBox="0 0 20 14" fill="none" xmlns="http://www.w3.org/2000/svg">
<path d="M19.1554 2.12211C19.4772 1.6379 19.4258 0.978389 18.9999 0.549959C18.5133 0.0603195 17.7218 0.0579193 17.2322 0.544589L6.97695 10.7378L2.76769 6.5561C2.27794 6.0695 1.48649 6.0721 0.99994 6.5619C0.76566 6.7977 0.64479 7.1035 0.63711 7.4115C0.63657 7.4333 0.63659 7.4551 0.63718 7.4769C0.64559 7.7868 0.76852 8.094 1.00574 8.3296L6.09619 13.3868C6.58376 13.8711 7.37092 13.871 7.85837 13.3865L18.9946 2.31772C19.0558 2.25688 19.1094 2.19129 19.1554 2.12211Z" fill="black"/>
</svg>
