<svg width="22" height="22" viewBox="0 0 22 22" fill="none" xmlns="http://www.w3.org/2000/svg">
<path d="M8.75 10C9.4404 10 10 10.5596 10 11.25V15.75C10 16.4404 9.4404 17 8.75 17C8.05965 17 7.5 16.4404 7.5 15.75V11.25C7.5 10.5596 8.05965 10 8.75 10Z" fill="black"/>
<path d="M13.25 10C13.9404 10 14.5 10.5596 14.5 11.25V15.75C14.5 16.4404 13.9404 17 13.25 17C12.5596 17 12 16.4404 12 15.75V11.25C12 10.5596 12.5596 10 13.25 10Z" fill="black"/>
<path fill-rule="evenodd" clip-rule="evenodd" d="M7.5 0.5C6.39543 0.5 5.5 1.39543 5.5 2.5V5H1.25C0.55964 5 0 5.55964 0 6.25C0 6.94036 0.55964 7.5 1.25 7.5H2.64706L3.38926 20.1174C3.45145 21.1746 4.32686 22 5.38581 22H16.6142C17.6731 22 18.5486 21.1746 18.6107 20.1174L19.3529 7.5H20.75C21.4404 7.5 22 6.94036 22 6.25C22 5.55964 21.4404 5 20.75 5H16.5V2.5C16.5 1.39543 15.6046 0.5 14.5 0.5H7.5ZM5.15138 7.5L5.85726 19.5H16.1427L16.8486 7.5H5.15138ZM8 5V3H14V5H8Z" fill="black"/>
</svg>
