<svg width="21" height="21" viewBox="0 0 21 21" fill="none" xmlns="http://www.w3.org/2000/svg">
<path fill-rule="evenodd" clip-rule="evenodd" d="M5.58579 10.9142C5.21071 11.2892 5 11.7979 5 12.3284V15C5 15.5522 5.44772 16 6 16H8.6716C9.202 16 9.7107 15.7892 10.0858 15.4142L19.5858 5.91416C20.3668 5.13311 20.3668 3.86678 19.5858 3.08573L17.9142 1.41416C17.1332 0.633107 15.8668 0.633107 15.0858 1.41416L5.58579 10.9142ZM8.4645 13.5H7.5V12.5355L16.5 3.53548L17.4645 4.49995L8.4645 13.5Z" fill="black"/>
<path d="M17.75 13C17.0596 13 16.5 13.5596 16.5 14.25V18.5H2.5V4.49995H6.75C7.44036 4.49995 8 3.9403 8 3.24994C8 2.55959 7.44036 1.99994 6.75 1.99994H2C0.89543 1.99994 0 2.89538 0 3.99995V19C0 20.1045 0.89543 21 2 21H17C18.1046 21 19 20.1045 19 19V14.25C19 13.5596 18.4404 13 17.75 13Z" fill="black"/>
</svg>
