<svg width="20" height="20" viewBox="0 0 20 20" fill="none" xmlns="http://www.w3.org/2000/svg">
<path d="M10.0001 2.00006C10.0001 2.69042 10.5597 3.25006 11.2501 3.25006H16.7501V16.7501H11.2501C10.5597 16.7501 10.0001 17.3097 10.0001 18.0001C10.0001 18.6904 10.5597 19.2501 11.2501 19.2501H17.0001C18.2427 19.2501 19.2501 18.2427 19.2501 17.0001V3.00006C19.2501 1.75742 18.2427 0.750061 17.0001 0.750061H11.2501C10.5597 0.750061 10.0001 1.30971 10.0001 2.00006Z" fill="black"/>
<path d="M7.00007 6.76781L8.98228 8.75002H1.25005C0.559698 8.75002 5.33756e-05 9.30967 5.34058e-05 10C5.34359e-05 10.6904 0.559697 11.25 1.25005 11.25L8.98228 11.25L7.00003 13.2323C6.51188 13.7204 6.51188 14.5119 7.00003 15C7.48819 15.4882 8.27964 15.4882 8.7678 15L12.8839 10.8839C13.1184 10.6495 13.2501 10.3315 13.2501 10C13.2501 9.6685 13.1184 9.35056 12.8839 9.11614L8.76784 5.00004C8.27968 4.51189 7.48822 4.51189 7.00007 5.00004C6.51191 5.4882 6.51191 6.27965 7.00007 6.76781Z" fill="black"/>
</svg>
