<svg width="408" height="88" viewBox="0 0 408 88" fill="none" xmlns="http://www.w3.org/2000/svg">
<path d="M119.5 79L114.5 9.2H124.3L127.9 67.7H128.7L136.6 26.1H147.7L155.6 67.7H156.4L157.5 49.8L160.1 9.2H169.5L164.5 79H149.5L142.4 38.6H141.6L134.5 79H119.5Z" fill="#28282B"/>
<path d="M179.961 79V70.5H196.361V17.7H179.961V9.2H223.961V17.7H207.561V70.5H223.961V79H179.961Z" fill="#28282B"/>
<path d="M251.422 79H240.322V9.2H266.422C273.089 9.2 278.155 11.0667 281.622 14.8C285.155 18.5333 286.922 23.6667 286.922 30.2C286.922 35.5333 285.622 39.9333 283.022 43.4C280.422 46.8667 276.689 49 271.822 49.8L287.922 79H275.522L260.722 50.8H251.422V79ZM264.822 41.8C271.755 41.8 275.222 38.6333 275.222 32.3V28C275.222 21.6667 271.755 18.5 264.822 18.5H251.422V41.8H264.822Z" fill="#28282B"/>
<path d="M300.483 79V9.2H344.183V18.6H311.683V38.9H342.983V48.3H311.683V69.6H344.183V79H300.483Z" fill="#28282B"/>
<path d="M360.044 9.2H380.844C389.777 9.2 396.377 12.1667 400.644 18.1C404.977 24.0333 407.144 32.7 407.144 44.1C407.144 55.5 404.977 64.1667 400.644 70.1C396.377 76.0333 389.777 79 380.844 79H360.044V9.2ZM380.144 69.8C385.277 69.8 389.077 68.1 391.544 64.7C394.077 61.2333 395.344 56.3 395.344 49.9V38.3C395.344 31.9 394.077 27 391.544 23.6C389.077 20.1333 385.277 18.4 380.144 18.4H371.144V69.8H380.144Z" fill="#28282B"/>
<path d="M0 2.75C0 1.23122 1.23122 0 2.75 0H85.25C86.7688 0 88 1.23122 88 2.75V85.25C88 86.7688 86.7688 88 85.25 88H2.75C1.23122 88 0 86.7688 0 85.25V2.75Z" fill="#28282B"/>
<path d="M33 44C33 50.0751 28.0751 55 22 55C15.9249 55 11 50.0751 11 44C11 37.9249 15.9249 33 22 33C28.0751 33 33 37.9249 33 44Z" fill="white"/>
<path d="M27.5 44C27.5 47.0376 25.0376 49.5 22 49.5C18.9624 49.5 16.5 47.0376 16.5 44C16.5 40.9624 18.9624 38.5 22 38.5C25.0376 38.5 27.5 40.9624 27.5 44Z" fill="#28282B"/>
<path d="M77 44C77 50.0751 72.0751 55 66 55C59.9249 55 55 50.0751 55 44C55 37.9249 59.9249 33 66 33C72.0751 33 77 37.9249 77 44Z" fill="white"/>
<path d="M71.5 44C71.5 47.0376 69.0376 49.5 66 49.5C62.9624 49.5 60.5 47.0376 60.5 44C60.5 40.9624 62.9624 38.5 66 38.5C69.0376 38.5 71.5 40.9624 71.5 44Z" fill="#28282B"/>
<path d="M27.5 41.25H60.5V46.75H27.5V41.25Z" fill="white"/>
</svg>
